 <svg  version="1.0" xmlns="http://www.w3.org/2000/svg"  width="300.000000pt" height="300.000000pt" viewBox="0 0 300.000000 300.000000"  preserveAspectRatio="xMidYMid meet">  <g transform="translate(0.000000,300.000000) scale(0.100000,-0.100000)" fill="#8f580a" stroke="none"> <path d="M450 2024 c0 -9 59 -57 93 -76 18 -10 28 -18 22 -18 -5 0 3 -13 18 -28 l27 -29 -110 5 c-138 6 -220 -13 -277 -64 l-38 -33 65 0 c36 0 92 4 125 9 33 4 64 3 69 -1 6 -5 19 -9 30 -10 14 0 8 -5 -16 -14 -95 -35 -153 -114 -182 -247 -8 -37 2 -35 48 7 21 19 53 44 72 56 19 11 40 28 47 38 6 9 53 29 102 44 103 31 117 33 109 13 -3 -8 3 -20 14 -27 20 -13 20 -14 -9 -71 -16 -32 -27 -63 -24 -67 3 -5 -1 -11 -8 -14 -15 -5 -82 -165 -74 -174 4 -3 11 5 16 18 38 99 61 139 80 139 24 0 27 10 9 28 -9 9 -5 25 16 71 28 57 29 58 47 40 17 -17 17 -21 -18 -124 -19 -59 -41 -109 -49 -112 -10 -4 -11 -9 -1 -23 6 -11 9 -22 5 -25 -3 -3 -55 -15 -116 -26 l-110 -20 -54 21 c-74 28 -111 26 -148 -7 -32 -29 -43 -73 -42 -158 0 -22 1 -67 1 -100 1 -59 0 -61 -45 -103 -26 -23 -44 -45 -41 -48 6 -6 77 22 77 32 0 3 -7 3 -17 0 -9 -4 3 15 27 41 24 27 47 52 52 58 5 5 8 4 8 -3 0 -7 -15 -29 -33 -49 -33 -37 -34 -40 -32 -123 1 -89 12 -122 46 -140 15 -9 24 -8 35 1 18 15 18 45 -1 53 -12 4 -15 26 -15 106 0 99 0 100 23 95 19 -5 24 -1 32 27 13 42 43 48 81 14 29 -24 29 -25 33 -156 3 -112 1 -134 -14 -150 -23 -26 -5 -34 73 -33 67 1 95 14 74 35 -8 8 -12 46 -12 104 0 78 3 95 21 119 21 25 25 27 77 20 30 -4 66 -12 79 -18 26 -12 57 -57 67 -98 7 -30 -16 -104 -41 -131 -9 -10 -14 -21 -11 -24 4 -3 40 -8 81 -11 l75 -6 -1 104 c-1 94 1 109 25 159 l27 54 -2 -58 c-3 -98 18 -76 32 32 18 140 6 191 -67 281 -20 24 -31 42 -25 40 5 -2 80 -47 166 -99 l156 -95 -5 -170 c-3 -93 -7 -176 -10 -182 -2 -7 -16 -13 -32 -13 -26 0 -52 -15 -52 -31 0 -40 535 -70 700 -39 106 19 138 56 65 74 l-25 6 0 173 0 173 143 95 c78 52 146 96 150 98 5 2 -8 -18 -28 -44 -68 -89 -76 -133 -50 -252 9 -37 18 -78 20 -90 9 -37 24 -26 27 20 l3 42 18 -52 c13 -36 18 -76 16 -129 -2 -56 2 -78 12 -85 18 -11 75 -11 97 0 9 5 26 12 36 16 18 5 18 6 -3 29 -48 51 -31 216 22 216 11 0 35 5 52 11 46 17 80 5 106 -38 20 -31 23 -48 20 -112 -1 -42 -7 -81 -13 -88 -21 -25 7 -38 84 -38 68 0 73 1 69 20 -1 11 -3 84 -4 163 -1 132 1 144 20 164 29 29 71 18 86 -22 8 -22 16 -28 29 -25 15 5 17 -5 20 -100 2 -76 0 -105 -9 -105 -14 0 -27 -36 -18 -50 11 -18 53 -11 69 12 12 16 16 47 16 115 0 84 2 92 18 86 9 -3 -4 16 -30 43 -47 49 -67 85 -28 49 21 -19 28 -7 8 13 -14 14 -48 16 -48 4 0 -5 16 -27 35 -49 34 -40 35 -43 35 -128 0 -90 -17 -145 -45 -145 -20 0 -19 26 0 34 21 8 22 203 1 232 -8 10 -18 16 -22 12 -4 -5 -15 5 -25 22 -10 16 -31 33 -45 36 -23 6 -32 1 -56 -25 l-29 -33 3 -154 3 -154 -32 0 c-30 0 -33 3 -33 32 0 50 -47 180 -78 217 -20 24 -36 34 -57 34 -53 0 -126 -20 -140 -39 -20 -27 -35 -98 -38 -176 l-2 -68 -35 0 -35 0 3 68 c3 51 -2 83 -18 128 -12 32 -27 78 -34 102 -16 57 -25 44 -20 -31 l4 -62 -15 65 c-28 117 -18 178 41 255 27 36 87 76 132 90 23 7 23 7 7 -24 -23 -46 -55 -179 -55 -233 l0 -48 58 0 c33 0 93 -3 134 -6 l75 -7 12 77 c6 42 11 115 11 163 0 94 -4 90 66 62 27 -11 37 -10 68 5 21 10 64 18 99 19 69 2 70 2 102 -105 15 -46 16 -60 6 -72 -8 -10 -12 -36 -9 -71 1 -31 -1 -57 -7 -59 -5 -2 5 -19 23 -38 18 -19 29 -37 26 -41 -4 -3 5 -12 20 -18 42 -20 41 -3 -4 37 l-41 38 5 80 c3 45 6 90 7 101 1 23 -36 131 -51 150 -6 7 -22 15 -35 18 -31 5 -121 -10 -154 -27 -20 -11 -31 -10 -69 4 -25 10 -46 24 -48 31 -5 36 -68 169 -80 169 -7 0 -11 6 -8 14 3 8 -7 38 -21 67 -24 46 -25 53 -11 61 9 5 16 18 16 28 0 26 13 25 106 -4 43 -14 81 -23 85 -20 4 2 10 -4 13 -14 3 -10 20 -26 37 -36 18 -10 39 -26 48 -35 9 -9 34 -30 56 -46 l38 -30 -7 44 c-17 106 -102 220 -176 236 -32 7 -32 25 1 25 10 0 19 6 19 13 0 9 2 9 8 0 8 -12 232 -23 232 -11 0 15 -71 60 -117 75 -51 16 -241 21 -284 8 -22 -7 -22 -6 6 28 17 20 37 38 45 42 8 3 35 24 60 47 l45 41 -58 -5 c-48 -4 -69 -12 -125 -51 -37 -25 -80 -59 -96 -76 l-29 -30 -37 33 c-37 33 -114 68 -180 80 l-35 7 40 -33 c59 -48 98 -88 92 -94 -2 -3 -24 5 -48 18 -59 31 -155 36 -217 12 -45 -17 -160 -119 -148 -132 3 -3 15 3 26 13 16 15 40 19 116 22 55 2 93 -1 90 -6 -4 -5 11 -7 33 -4 42 6 91 -2 91 -15 0 -4 -18 -17 -40 -30 -49 -28 -93 -102 -109 -183 l-12 -59 -161 0 -162 0 32 31 c18 17 32 35 32 40 0 17 -40 29 -96 29 l-56 0 6 30 c4 22 2 30 -9 30 -9 0 -15 10 -15 25 0 14 -4 25 -10 25 -5 0 -10 -9 -10 -20 0 -11 -7 -23 -15 -26 -9 -4 -15 -19 -15 -35 0 -28 -1 -29 -55 -29 -48 0 -55 -3 -55 -19 0 -11 12 -33 26 -50 l26 -31 -59 -1 c-32 0 -109 -4 -171 -7 l-112 -7 0 26 c0 37 -27 123 -52 166 -12 19 -42 48 -66 64 l-45 28 28 11 c15 6 46 10 69 10 23 -1 79 -1 125 0 71 1 89 -2 113 -20 45 -33 32 -5 -24 53 -68 69 -125 92 -209 84 -37 -3 -81 -15 -110 -31 l-49 -25 15 29 c8 16 23 31 32 35 17 5 83 60 83 69 0 8 -114 -26 -150 -44 -19 -10 -48 -30 -63 -46 l-28 -27 -42 40 c-45 43 -115 91 -160 111 -28 12 -97 17 -97 6z m114 -31 c15 -8 48 -33 72 -55 24 -22 44 -37 44 -32 0 4 16 -8 36 -27 l35 -34 19 23 c30 36 31 25 3 -28 l-26 -50 -17 37 c-10 21 -25 47 -35 58 -11 13 -9 7 5 -19 12 -22 23 -52 25 -67 3 -26 1 -28 -48 -34 -100 -13 -221 -46 -275 -75 -48 -26 -52 -27 -40 -8 22 33 111 78 167 85 28 3 51 9 51 13 0 4 -28 10 -62 13 -40 3 -66 11 -74 21 -10 14 -13 15 -24 1 -9 -11 -34 -15 -104 -15 -81 1 -89 2 -72 15 10 8 39 17 63 21 25 4 40 9 35 13 -6 3 62 6 150 5 l159 -1 -37 38 c-20 20 -33 42 -30 48 4 7 -1 11 -12 11 -10 0 -36 16 -58 35 l-39 35 30 -6 c17 -4 43 -13 59 -21z m1980 6 c-10 -12 -34 -28 -51 -36 -18 -7 -33 -19 -33 -25 0 -7 -17 -29 -37 -50 l-36 -37 39 5 c37 4 37 4 -11 -12 -27 -9 -62 -25 -77 -36 -34 -24 -35 -16 -3 41 14 24 23 46 21 48 -3 3 -19 -22 -35 -56 l-31 -61 -34 16 c-18 9 -40 29 -50 44 -18 32 -21 44 -6 35 6 -3 10 -2 10 3 0 5 -23 23 -51 41 -28 17 -49 34 -47 37 3 2 27 -3 53 -13 44 -16 52 -25 87 -88 21 -39 38 -64 38 -56 0 8 -12 35 -26 60 l-25 46 26 -29 26 -29 40 39 c21 21 39 34 39 30 0 -5 19 8 41 29 64 57 177 103 133 54z m-1609 -49 c-3 -5 -28 -22 -55 -37 -46 -26 -70 -53 -35 -39 27 10 -16 -54 -50 -75 -58 -36 -11 -19 104 38 91 46 124 58 158 56 43 -1 129 -41 157 -72 13 -15 6 -16 -77 -13 -51 2 -114 9 -142 17 -57 16 -69 13 -28 -9 l28 -15 -25 -1 c-14 0 -36 -7 -49 -17 -23 -16 -23 -17 -5 -31 18 -13 18 -14 -3 -8 -11 4 -47 11 -79 16 -32 5 -62 14 -67 19 -9 9 42 119 66 139 13 11 83 40 100 41 5 1 6 -3 2 -9z m1161 -85 c42 -19 81 -32 87 -28 5 3 7 2 4 -4 -4 -5 14 -21 40 -35 l46 -26 -67 -11 c-36 -6 -74 -14 -83 -17 -10 -3 -7 1 6 9 l24 14 -24 17 c-13 9 -34 16 -46 16 -29 0 -30 16 -2 25 45 14 8 15 -42 1 -30 -8 -94 -16 -142 -18 l-88 -3 38 32 c41 35 101 61 145 62 15 1 61 -15 104 -34z m552 -7 c-14 -5 -4 -6 26 -4 30 2 44 1 35 -5 -10 -6 -6 -9 14 -9 15 0 44 -8 65 -17 l37 -18 -90 -3 c-83 -3 -91 -1 -108 19 l-18 22 -5 -21 c-5 -17 -16 -22 -70 -27 -69 -8 -88 -25 -26 -25 47 0 129 -38 166 -79 17 -17 26 -31 21 -31 -5 0 1 -10 12 -22 20 -23 43 -78 43 -106 0 -12 -4 -12 -20 3 -13 12 -20 31 -20 57 0 24 -4 37 -10 33 -5 -3 -10 -15 -10 -26 0 -10 -4 -19 -8 -19 -16 0 -82 68 -82 84 0 18 -16 22 -22 5 -3 -8 -31 -3 -86 15 -46 14 -98 26 -115 26 -21 0 -39 8 -50 21 -17 19 -20 20 -42 5 -13 -9 -30 -16 -37 -16 -7 0 -22 -12 -35 -27 -19 -24 -22 -25 -23 -9 0 15 -3 16 -15 6 -17 -14 -18 -20 -5 -40 7 -12 12 -12 28 4 13 11 22 14 27 7 3 -6 14 -11 24 -11 11 0 25 -13 34 -32 16 -35 75 -212 87 -264 l7 -32 -61 -4 c-36 -2 -81 -14 -111 -28 -27 -13 -54 -26 -60 -29 -5 -2 -4 2 2 11 7 8 37 27 67 41 l55 27 -16 38 c-8 20 -19 42 -25 49 -11 13 -113 48 -170 58 -21 3 -38 8 -38 10 0 15 14 33 23 30 13 -4 123 122 114 131 -2 3 -24 -17 -47 -45 -24 -29 -48 -47 -55 -44 -9 3 -22 -11 -35 -36 -29 -58 -44 -53 -36 10 8 60 38 128 69 157 26 25 116 50 207 58 106 10 327 -36 398 -82 13 -9 26 -13 29 -10 8 7 -86 52 -147 70 -30 9 -95 22 -145 29 l-90 13 47 27 c25 16 75 34 110 41 43 9 55 15 38 17 -14 2 19 4 73 4 56 0 88 -3 75 -7z m-1799 -113 c45 -9 87 -13 93 -9 6 4 8 3 5 -3 -4 -6 4 -14 18 -17 40 -10 82 -92 100 -198 8 -51 -7 -48 -40 8 -16 27 -30 42 -34 35 -4 -6 -32 20 -70 64 -34 41 -65 75 -68 75 -2 0 -2 -10 2 -22 5 -19 2 -18 -22 10 -15 18 -36 32 -45 32 -9 0 -20 5 -23 10 -9 15 -45 12 -51 -4 -3 -8 -28 -17 -62 -21 -31 -4 -85 -17 -119 -30 -57 -20 -64 -21 -72 -6 -8 13 -11 11 -16 -11 -9 -36 -74 -86 -86 -67 -5 8 -9 21 -10 29 -1 8 -5 -5 -8 -29 -4 -30 -13 -48 -29 -59 -23 -15 -23 -15 -16 14 22 94 73 135 217 174 146 40 224 46 336 25z m-92 -31 c8 -21 -13 -42 -28 -27 -13 13 -5 43 11 43 6 0 13 -7 17 -16z m1563 -4 c0 -11 -6 -20 -14 -20 -18 0 -29 16 -21 30 11 18 35 11 35 -10z m-1510 -30 c0 -21 -24 -28 -35 -10 -8 14 3 30 21 30 8 0 14 -9 14 -20z m1458 3 c-2 -10 -10 -18 -18 -18 -8 0 -16 8 -18 18 -2 12 3 17 18 17 15 0 20 -5 18 -17z m105 -19 c-3 -8 -11 -14 -18 -14 -18 0 -26 25 -12 39 14 14 38 -5 30 -25z m-1665 9 c-2 -10 -10 -18 -18 -18 -8 0 -16 8 -18 18 -2 12 3 17 18 17 15 0 20 -5 18 -17z m49 -19 c8 -21 -13 -42 -28 -27 -13 13 -5 43 11 43 6 0 13 -7 17 -16z m115 -5 c1 5 29 -22 61 -60 32 -38 62 -67 67 -64 8 5 30 -24 30 -38 0 -2 -26 -10 -59 -16 -81 -16 -162 -59 -184 -98 l-19 -33 51 -31 c28 -18 50 -33 48 -35 -1 -2 -26 9 -55 23 -28 14 -72 28 -97 31 -25 2 -45 6 -45 9 0 12 85 262 97 286 7 15 18 25 23 22 5 -3 15 1 22 8 11 12 16 12 34 0 13 -8 23 -10 26 -4z m1448 1 c0 -21 -24 -28 -35 -10 -8 14 3 30 21 30 8 0 14 -9 14 -20z m-780 -30 c0 -24 5 -28 38 -34 20 -3 52 -6 70 -6 17 0 32 -3 32 -7 0 -4 -14 -22 -32 -40 -32 -33 -33 -33 -122 -33 l-91 1 -28 37 c-15 20 -24 37 -20 39 4 1 29 4 55 8 41 5 49 10 54 33 9 38 13 42 29 35 8 -3 15 -18 15 -33z m829 -39 c27 -53 29 -60 15 -80 -14 -20 -14 -21 9 -21 22 0 29 -10 56 -74 17 -41 31 -77 31 -80 0 -3 -20 -6 -44 -6 -35 0 -45 4 -49 20 -3 12 1 24 11 29 13 7 13 9 -4 15 -14 4 -28 34 -52 111 -27 88 -30 108 -20 125 7 11 14 20 15 20 2 0 16 -26 32 -59z m-516 -98 l107 -6 0 -27 c0 -24 -5 -29 -37 -34 -50 -9 -79 -9 -135 -1 -30 5 -58 3 -76 -4 -24 -10 -39 -9 -80 4 -47 16 -55 16 -107 0 -47 -13 -62 -14 -91 -3 -29 10 -41 9 -81 -5 -37 -13 -56 -15 -83 -7 -46 13 -96 13 -122 -1 -33 -18 -68 3 -68 41 0 16 3 31 8 31 62 11 636 20 765 12z m301 -39 c47 -16 86 -44 86 -63 0 -14 -37 -20 -49 -8 -10 10 -43 15 -143 20 -60 3 -70 13 -53 53 13 31 14 32 62 23 26 -5 70 -16 97 -25z m-1104 0 c6 -14 10 -27 10 -29 0 -2 -17 -9 -37 -15 -21 -7 -42 -16 -46 -20 -5 -4 -22 -3 -38 3 -24 9 -33 8 -57 -10 -18 -14 -34 -18 -42 -13 -8 5 -23 4 -34 -2 -20 -11 -20 -10 -5 13 20 30 75 59 159 81 84 22 79 22 90 -8z m385 -49 c31 -12 40 -12 76 0 50 18 85 19 129 3 25 -8 44 -8 79 1 37 9 55 9 95 -3 33 -10 56 -12 73 -5 35 13 85 11 106 -5 12 -9 32 -12 57 -9 24 3 46 1 54 -6 8 -7 25 -9 40 -5 15 3 32 1 41 -6 8 -6 23 -9 34 -5 10 3 22 1 25 -4 4 -5 -4 -13 -16 -17 -13 -4 -107 -62 -210 -130 l-187 -124 -307 0 -307 0 -208 128 c-134 82 -204 130 -198 137 6 6 16 5 29 -3 16 -10 23 -8 44 13 29 29 35 30 60 12 16 -12 24 -11 54 5 41 20 84 23 113 7 15 -7 24 -7 34 1 16 14 62 15 130 6 36 -6 60 -4 85 8 43 19 34 19 75 1z m-1059 -101 c29 -12 56 -15 104 -10 l65 6 -3 -123 c-2 -67 -1 -137 3 -155 l6 -33 122 7 c171 10 173 10 168 65 -2 24 -14 82 -28 129 -14 47 -28 94 -31 104 -5 18 -2 17 37 -5 50 -28 109 -96 127 -148 7 -20 13 -70 13 -111 -1 -44 -4 -65 -8 -51 -8 31 -31 40 -31 12 0 -12 -12 -45 -26 -73 -22 -44 -26 -65 -26 -131 1 -43 4 -82 7 -86 2 -5 -6 -11 -18 -13 -45 -9 -52 2 -54 85 -3 87 -26 145 -69 173 -15 10 -54 19 -97 22 l-73 4 -26 -48 c-28 -53 -47 -125 -50 -191 l-2 -43 -40 0 c-31 0 -37 3 -28 12 8 8 12 55 12 145 0 156 -9 185 -65 203 -31 10 -39 9 -55 -5 -11 -10 -22 -26 -25 -36 -4 -10 -12 -16 -20 -12 -11 4 -12 10 -4 25 8 15 8 23 -1 32 -9 8 -17 4 -33 -16 l-22 -27 1 92 c1 149 3 163 25 191 16 21 29 26 64 26 23 0 60 -7 81 -16z m413 -96 c18 -62 35 -120 37 -129 6 -20 -20 -26 -160 -35 l-105 -7 -3 49 c-2 27 -2 88 0 136 4 100 -4 94 128 97 l70 1 33 -112z m1684 54 c6 -34 4 -84 -3 -138 l-12 -84 -122 7 c-66 3 -122 6 -123 7 -5 4 37 176 52 213 16 41 18 42 68 46 29 2 70 3 92 3 l40 -1 8 -53z m-1243 -350 c0 -136 -8 -199 -23 -182 -8 10 6 349 14 344 5 -3 9 -76 9 -162z m58 -10 c2 -147 0 -172 -12 -172 -13 0 -15 27 -15 176 -1 135 2 175 12 171 9 -3 13 -50 15 -175z m40 6 c-2 -126 -6 -172 -15 -176 -10 -3 -13 36 -13 172 0 151 2 176 15 176 13 0 15 -23 13 -172z m42 -3 c0 -149 -2 -175 -15 -175 -13 0 -15 25 -15 168 0 93 3 172 7 175 19 20 23 -8 23 -168z m40 0 c0 -133 -3 -175 -12 -175 -10 0 -14 41 -16 165 -1 91 0 170 3 175 19 31 25 -6 25 -165z m45 0 c0 -126 -3 -169 -12 -172 -10 -4 -13 35 -13 172 0 137 3 176 13 173 9 -4 12 -47 12 -173z m54 -1 c1 -109 -8 -174 -25 -174 -19 0 -21 336 -1 343 15 5 25 -58 26 -169z m-262 -91 c-1 -49 -3 -9 -3 87 0 96 2 136 3 88 2 -49 2 -127 0 -175z m313 87 c0 -163 -1 -170 -20 -170 -19 0 -20 7 -20 170 0 163 1 170 20 170 19 0 20 -7 20 -170z m40 -1 c0 -114 -3 -170 -10 -167 -7 2 -12 67 -15 171 -4 142 -2 167 10 167 13 0 15 -28 15 -171z m43 124 c7 -65 -4 -293 -15 -293 -4 0 -8 77 -8 170 0 163 11 223 23 123z m49 -45 c7 -138 -2 -248 -18 -248 -11 0 -14 33 -14 170 0 138 3 170 14 170 10 0 15 -23 18 -92z m48 -72 c0 -154 -5 -186 -27 -173 -5 3 -7 80 -5 171 2 137 5 166 17 166 13 0 15 -27 15 -164z m30 -6 c0 -107 -4 -170 -10 -170 -6 0 -10 63 -10 170 0 107 4 170 10 170 6 0 10 -63 10 -170z m30 6 c0 -99 -4 -167 -10 -171 -7 -4 -10 53 -10 164 0 107 4 171 10 171 6 0 10 -61 10 -164z m22 32 c-4 -211 -8 -227 -10 -40 -1 94 1 172 6 172 4 0 6 -60 4 -132z m-992 93 c0 -4 -41 -11 -92 -15 -127 -9 -178 -8 -178 4 0 5 44 11 98 13 53 1 114 4 135 5 20 1 37 -2 37 -7z m1625 -12 c5 -5 -37 -9 -112 -9 -106 0 -143 6 -129 21 8 8 231 -3 241 -12z m-2220 -146 c0 -76 4 -108 13 -110 17 -6 15 -33 -4 -33 -40 0 -63 192 -27 232 9 10 17 18 17 18 1 0 1 -48 1 -107z m297 -116 c3 -47 0 -57 -13 -57 -14 0 -16 9 -12 48 2 26 7 63 10 82 8 40 10 28 15 -73z m1988 -19 c0 -42 -3 -48 -21 -48 -16 0 -19 4 -13 18 4 9 9 37 12 61 6 57 22 34 22 -31z m-1727 -9 c-5 -17 -16 -33 -24 -35 -14 -1 -13 5 5 36 24 45 30 45 19 -1z m1475 -11 c14 -16 13 -18 -6 -18 -18 0 -22 6 -21 33 0 17 3 25 6 17 3 -8 12 -23 21 -32z m-398 -13 l25 -13 -26 -10 c-86 -33 -435 -39 -649 -11 -103 13 -113 19 -65 35 60 19 680 19 715 -1z"/> <path d="M629 1830 c29 -11 59 -25 67 -31 8 -7 17 -9 21 -6 8 9 -97 57 -122 57 -11 -1 4 -9 34 -20z"/> <path d="M406 1251 c-3 -5 0 -11 8 -14 19 -7 58 -91 51 -109 -4 -9 -17 -20 -31 -26 -13 -7 -24 -20 -24 -31 0 -16 5 -14 35 13 34 31 47 77 26 90 -4 3 -11 18 -14 33 -6 29 -42 59 -51 44z"/> <path d="M2582 1237 c-17 -8 -22 -17 -19 -34 2 -13 0 -26 -4 -29 -20 -12 -8 -66 21 -96 37 -37 40 -15 3 24 -23 24 -25 31 -15 53 7 14 12 35 12 45 0 11 4 20 8 20 5 0 17 7 28 15 23 18 1 20 -34 2z"/> </g> </svg> 
